<svg width="260" height="61" fill="none" xmlns="http://www.w3.org/2000/svg">
  <defs/>
  <path d="M89.04 42.6c-2.32 0-4.1467-.88-5.48-2.64-1.3067-1.7867-1.96-4.2667-1.96-7.44 0-3.76.9733-6.64 2.92-8.64 1.9733-2.0267 4.7733-3.04 8.4-3.04.4533 0 1.1333.0267 2.04.08V12.8h5.56V42h-5.48l.12-2.68H95c-.6933 1.0667-1.5467 1.88-2.56 2.44-.9867.56-2.12.84-3.4.84zm1.28-4.92c.8533 0 1.68-.36 2.48-1.08.8-.7467 1.52-1.8 2.16-3.16v-7.32c-.9067-.24-1.7733-.36-2.6-.36-1.68 0-2.96.5467-3.84 1.64-.8533 1.0933-1.28 2.6933-1.28 4.8 0 1.7067.2667 3.0533.8 4.04.56.96 1.32 1.44 2.28 1.44zm15.486-16.28h5.64v3.36h.32c.773-1.36 1.533-2.36 2.28-3 .773-.64 1.733-.96 2.88-.96.48 0 .88.0533 1.2.16l-.6 6.08c-.693-.1867-1.253-.28-1.68-.28-.613 0-1.16.12-1.64.36-.453.24-.867.56-1.24.96-.347.4-.853 1.0133-1.52 1.84V42h-5.64V21.4zm18.647-8.6h6.44V18h-6.44v-5.2zm-3.12 24.36h3.84V26.24h-3.84V21.4h9.48v15.76h3.44V42h-12.92v-4.84zm24.218 5.44c-2.134 0-4.654-.32-7.56-.96V12.8h5.56v10.6c1.573-1.7067 3.506-2.56 5.8-2.56 2.346 0 4.186.8933 5.52 2.68 1.333 1.76 2 4.2267 2 7.4 0 3.7867-.974 6.68-2.92 8.68-1.947 2-4.747 3-8.4 3zm.6-4.92c1.653 0 2.906-.5467 3.76-1.64.88-1.0933 1.32-2.6933 1.32-4.8 0-1.7333-.294-3.08-.88-4.04-.56-.96-1.36-1.44-2.4-1.44-.854 0-1.654.3067-2.4.92-.747.5867-1.414 1.4533-2 2.6v8.04c.826.24 1.693.36 2.6.36zm22.486 4.92c-2.134 0-4.654-.32-7.56-.96V12.8h5.56v10.6c1.573-1.7067 3.506-2.56 5.8-2.56 2.346 0 4.186.8933 5.52 2.68 1.333 1.76 2 4.2267 2 7.4 0 3.7867-.974 6.68-2.92 8.68-1.947 2-4.747 3-8.4 3zm.6-4.92c1.653 0 2.906-.5467 3.76-1.64.88-1.0933 1.32-2.6933 1.32-4.8 0-1.7333-.294-3.08-.88-4.04-.56-.96-1.36-1.44-2.4-1.44-.854 0-1.654.3067-2.4.92-.747.5867-1.414 1.4533-2 2.6v8.04c.826.24 1.693.36 2.6.36zm22.486 4.92c-2.134 0-4.654-.32-7.56-.96V12.8h5.56v10.6c1.573-1.7067 3.506-2.56 5.8-2.56 2.346 0 4.186.8933 5.52 2.68 1.333 1.76 2 4.2267 2 7.4 0 3.7867-.974 6.68-2.92 8.68-1.947 2-4.747 3-8.4 3zm.6-4.92c1.653 0 2.906-.5467 3.76-1.64.88-1.0933 1.32-2.6933 1.32-4.8 0-1.7333-.294-3.08-.88-4.04-.56-.96-1.36-1.44-2.4-1.44-.854 0-1.654.3067-2.4.92-.747.5867-1.414 1.4533-2 2.6v8.04c.826.24 1.693.36 2.6.36zm13.224-.52h3.64V17.6h-3.44v-4.8h9.08v24.36h3.64V42h-12.92v-4.84zm25.675 5.44c-2.08 0-3.92-.4533-5.52-1.36-1.574-.9067-2.8-2.1733-3.68-3.8-.88-1.6533-1.32-3.56-1.32-5.72 0-2.16.426-4.0533 1.28-5.68.88-1.6533 2.106-2.9333 3.68-3.84 1.6-.9067 3.44-1.36 5.52-1.36 2.08 0 3.906.4533 5.48 1.36 1.6.88 2.826 2.1333 3.68 3.76.88 1.6267 1.32 3.5067 1.32 5.64 0 2.16-.44 4.08-1.32 5.76-.854 1.6533-2.08 2.9467-3.68 3.88-1.574.9067-3.387 1.36-5.44 1.36zm-.04-4.88c1.44 0 2.586-.5467 3.44-1.64.88-1.12 1.32-2.5867 1.32-4.4 0-1.8133-.44-3.2533-1.32-4.32-.854-1.0933-2-1.64-3.44-1.64s-2.6.5467-3.48 1.64c-.854 1.0667-1.28 2.5067-1.28 4.32 0 1.8133.426 3.28 1.28 4.4.88 1.0933 2.04 1.64 3.48 1.64zm14.78-16.32h5.64v3.36h.32c.774-1.36 1.534-2.36 2.28-3 .774-.64 1.734-.96 2.88-.96.48 0 .88.0533 1.2.16l-.6 6.08c-.693-.1867-1.253-.28-1.68-.28-.613 0-1.16.12-1.64.36-.453.24-.866.56-1.24.96-.346.4-.853 1.0133-1.52 1.84V42h-5.64V21.4z" fill="#A6144C"/>
  <path fill-rule="evenodd" clip-rule="evenodd" d="M14 52.9167v-6.987c0-8.8366 7.1634-16 16-16s16 7.1634 16 16v6.9947c7.2474-5.0524 11.9844-13.4457 11.9844-22.9478C57.9844 14.5312 45.4688 1.99219 30 1.99219c-15.4688 0-27.98438 12.51561-27.98438 27.96091 0 9.5022 4.73701 17.9044 11.98438 22.9636z" fill="#EA4C89"/>
  <path fill-rule="evenodd" clip-rule="evenodd" d="M0 29.9531C0 13.4297 13.4531 0 30 0s30 13.4531 30 29.9766c0 10.6531-5.5921 20.0202-14 25.3313v-5.3943c.3378-.2702.6687-.5488.9922-.8355-.1157-.1619-.4369-.5979-.9922-1.2143v-1.9341c0-1.4341-.1887-2.8241-.5425-4.1465 2.6978 2.1665 4.0798 3.9499 4.3706 4.3418 3.586-4.3594 5.7422-9.9141 5.8125-15.9375-.0211.0041-.0471.0092-.0777.0152-1.1906.2341-9.441 1.8562-17.7582.8051-.1111.25-.2222.5082-.3333.7698-1.4551-.7698-3.0432-1.3217-4.7209-1.6124.0208-.0472.0414-.0945.062-.1418-.0592-.0169-.1191-.0338-.1796-.0508-.2746-.0775-.5593-.1578-.8282-.2538-13.2188-4.2891-20.25-15.9141-20.8359-16.8985-4.10161 4.5469-6.58599 10.5469-6.60942 17.1328 0 .1289.00585.2578.01171.3867.00586.1289.01172.2579.01172.3868.85463-.0178 8.22859-.1168 17.33379 1.5115-1.6607 1.0068-3.1235 2.3073-4.3165 3.8293-6.7678-.9294-11.71244-.9033-12.47822-.8877C6.16051 41.0763 9.43786 46.2457 14 49.8953v5.4116C5.59209 49.9938 0 40.6213 0 29.9531zm39.3281-2.9765c8.0391 1.2656 15.0938-.8204 15.961-1.1016-1.125-7.125-5.2266-13.2656-10.9922-17.13281-.2578 1.54691-1.6172 9.04691-4.9688 18.23441zm-4.7812-1.1954c3.5859-9.3281 5.0859-17.1562 5.4609-19.4062C36.9375 5.0625 33.5391 4.33594 30 4.35938c-5.9297 0-11.3906 2.01562-15.7266 5.39062.4688.9375 5.6485 10.9453 20.1094 15.9844.0469 0 .1172.0234.1641.0468z" fill="#A6144C"/>
  <path d="M32.326 36.9297v14.1952l4.6461-4.6462 3.5965 3.5965-10.7843 10.7817L19 50.0752l3.5965-3.5965 4.6461 4.6462V36.9297h5.0834z" fill="#A6144C"/>
</svg>
