<svg width="335" height="100" fill="none" xmlns="http://www.w3.org/2000/svg">
  <rect width="100" height="100" rx="34" fill="url(#paint0_linear)"/>
  <path d="M67.9452 26H32.138C27.6506 26 24 29.644 24 34.1232v28.4314c0 4.4793 3.6506 8.1233 8.138 8.1233h21.7692c1.1237 0 2.0345-.9091 2.0345-2.0308 0-1.1218-.9108-2.0309-2.0345-2.0309h-1.4917l-4.6778-6.0575 14.7648-18.7461 9.987 11.8925c.5495.6545 1.4507.896 2.2546.6041.8039-.2919 1.3391-1.0547 1.3391-1.9086V34.1232c0-4.4792-3.6506-8.1232-8.138-8.1232zm4.069 20.8166l-8.0029-9.5301c-.3938-.4689-.9775-.7354-1.591-.7259-.6128.0095-1.1885.2943-1.5676.7755L45.1751 57.2404l-5.3223-6.8921c-.385-.4986-.9803-.7909-1.6113-.7909h-.0012c-.631.0004-1.2267.2931-1.6113.7925l-4.4775 5.8104c-.685.8889-.5185 2.1641.3719 2.8479.8909.6838 2.1685.5173 2.8535-.3716l2.8662-3.7197 9.0348 11.6993H32.138c-2.2435 0-4.069-1.8221-4.069-4.0616V34.1232c0-2.2394 1.8255-4.0616 4.069-4.0616h35.8072c2.2435 0 4.069 1.8222 4.069 4.0616v12.6934zM38.2415 33.3109c-3.3657 0-6.1035 2.7333-6.1035 6.0925 0 3.3595 2.7378 6.0924 6.1035 6.0924 3.3657 0 6.1035-2.7329 6.1035-6.0924 0-3.3592-2.7378-6.0925-6.1035-6.0925zm0 8.1233c-1.1218 0-2.0345-.9111-2.0345-2.0308 0-1.1198.9127-2.0309 2.0345-2.0309s2.0345.9111 2.0345 2.0309c0 1.1197-.9127 2.0308-2.0345 2.0308zm37.2222 24.5351c.8075.7802.8285 2.0657.0469 2.8717l-3.8548 3.9752c-.006.0059-.0119.0123-.0179.0182-.9616.9666-2.2407 1.4989-3.6021 1.4989-1.357 0-2.6329-.5291-3.593-1.4902l-3.9279-3.8672c-.7999-.7878-.809-2.0733-.0199-2.8717.7888-.7989 2.0771-.8076 2.8774-.0199l2.6289 2.5885V57.2745c0-1.1217.9112-2.0308 2.0345-2.0308 1.1237 0 2.0345.9091 2.0345 2.0308V68.611l2.5165-2.5949c.7816-.806 2.0699-.8266 2.8769-.0468z" fill="#fff"/>
  <path d="M153.848 69.62c-3.224 0-6.035-.5167-8.432-1.55-2.356-1.0747-4.175-2.4593-5.456-4.154-1.24-1.6947-1.901-3.5133-1.984-5.456 0-.3307.124-.62.372-.868s.558-.372.93-.372h1.24c.744 0 1.199.4133 1.364 1.24.289 1.984 1.426 3.72 3.41 5.208 1.984 1.488 4.836 2.232 8.556 2.232 3.927 0 6.841-.7027 8.742-2.108 1.943-1.4467 2.914-3.4513 2.914-6.014 0-1.5707-.475-2.852-1.426-3.844-.909-1.0333-2.253-1.922-4.03-2.666-1.777-.7853-4.464-1.7567-8.06-2.914-3.183-1.0333-5.683-2.046-7.502-3.038-1.777-.992-3.1-2.2113-3.968-3.658-.868-1.4467-1.302-3.286-1.302-5.518 0-2.108.558-4.0093 1.674-5.704 1.157-1.6947 2.811-3.0173 4.96-3.968 2.149-.992 4.712-1.488 7.688-1.488 3.059 0 5.683.558 7.874 1.674 2.191 1.0747 3.844 2.4593 4.96 4.154 1.116 1.6533 1.715 3.3273 1.798 5.022 0 .3307-.124.62-.372.868-.207.248-.517.372-.93.372h-1.24c-.289 0-.579-.0827-.868-.248-.289-.2067-.455-.5373-.496-.992-.248-2.0667-1.364-3.7613-3.348-5.084-1.943-1.364-4.402-2.046-7.378-2.046-3.183 0-5.725.62-7.626 1.86-1.86 1.24-2.79 3.1-2.79 5.58 0 1.612.413 2.9553 1.24 4.03.868 1.0333 2.149 1.9427 3.844 2.728 1.695.744 4.195 1.6533 7.502 2.728 3.389 1.0747 6.035 2.108 7.936 3.1 1.901.992 3.327 2.1907 4.278 3.596.992 1.4053 1.488 3.224 1.488 5.456 0 3.72-1.385 6.634-4.154 8.742-2.769 2.0667-6.572 3.1-11.408 3.1zm25.139-.62c-.413 0-.744-.124-.992-.372s-.372-.5787-.372-.992V26.344c0-.4133.124-.744.372-.992s.579-.372.992-.372h1.054c.413 0 .744.124.992.372s.372.5787.372.992v14.694c1.24-1.612 2.645-2.8313 4.216-3.658 1.612-.8267 3.679-1.24 6.2-1.24 4.051 0 7.171 1.302 9.362 3.906 2.191 2.5627 3.286 5.89 3.286 9.982v17.608c0 .4133-.124.744-.372.992s-.579.372-.992.372h-1.054c-.413 0-.744-.124-.992-.372s-.372-.5787-.372-.992V50.338c0-3.348-.827-5.952-2.48-7.812-1.612-1.86-3.947-2.79-7.006-2.79-2.976 0-5.353.9507-7.13 2.852-1.777 1.86-2.666 4.4433-2.666 7.75v17.298c0 .4133-.124.744-.372.992s-.579.372-.992.372h-1.054zm47.481.62c-4.299 0-7.647-1.302-10.044-3.906-2.356-2.6453-3.596-6.0553-3.72-10.23l-.062-2.604.062-2.604c.124-4.1747 1.364-7.564 3.72-10.168 2.397-2.6453 5.745-3.968 10.044-3.968s7.626 1.3227 9.982 3.968c2.397 2.604 3.658 5.9933 3.782 10.168.041.4133.062 1.2813.062 2.604s-.021 2.1907-.062 2.604c-.124 4.1747-1.385 7.5847-3.782 10.23-2.356 2.604-5.683 3.906-9.982 3.906zm0-3.596c2.935 0 5.291-.93 7.068-2.79 1.819-1.9013 2.79-4.588 2.914-8.06.041-.4133.062-1.178.062-2.294s-.021-1.8807-.062-2.294c-.124-3.472-1.095-6.138-2.914-7.998-1.777-1.9013-4.133-2.852-7.068-2.852-2.935 0-5.311.9507-7.13 2.852-1.777 1.86-2.728 4.526-2.852 7.998l-.062 2.294.062 2.294c.124 3.472 1.075 6.1587 2.852 8.06 1.819 1.86 4.195 2.79 7.13 2.79zm34.572 3.596c-4.298 0-7.646-1.302-10.044-3.906-2.356-2.6453-3.596-6.0553-3.72-10.23l-.062-2.604.062-2.604c.124-4.1747 1.364-7.564 3.72-10.168 2.398-2.6453 5.746-3.968 10.044-3.968 4.299 0 7.626 1.3227 9.982 3.968 2.398 2.604 3.658 5.9933 3.782 10.168.042.4133.062 1.2813.062 2.604s-.02 2.1907-.062 2.604c-.124 4.1747-1.384 7.5847-3.782 10.23-2.356 2.604-5.683 3.906-9.982 3.906zm0-3.596c2.935 0 5.291-.93 7.068-2.79 1.819-1.9013 2.79-4.588 2.914-8.06.042-.4133.062-1.178.062-2.294s-.02-1.8807-.062-2.294c-.124-3.472-1.095-6.138-2.914-7.998-1.777-1.9013-4.133-2.852-7.068-2.852-2.934 0-5.311.9507-7.13 2.852-1.777 1.86-2.728 4.526-2.852 7.998l-.062 2.294.062 2.294c.124 3.472 1.075 6.1587 2.852 8.06 1.819 1.86 4.196 2.79 7.13 2.79zm34.572 3.596c-4.298 0-7.646-1.302-10.044-3.906-2.356-2.6453-3.596-6.0553-3.72-10.23l-.062-2.604.062-2.604c.124-4.1747 1.364-7.564 3.72-10.168 2.398-2.6453 5.746-3.968 10.044-3.968 4.299 0 7.626 1.3227 9.982 3.968 2.398 2.604 3.658 5.9933 3.782 10.168.042.4133.062 1.2813.062 2.604s-.02 2.1907-.062 2.604c-.124 4.1747-1.384 7.5847-3.782 10.23-2.356 2.604-5.683 3.906-9.982 3.906zm0-3.596c2.935 0 5.291-.93 7.068-2.79 1.819-1.9013 2.79-4.588 2.914-8.06.042-.4133.062-1.178.062-2.294s-.02-1.8807-.062-2.294c-.124-3.472-1.095-6.138-2.914-7.998-1.777-1.9013-4.133-2.852-7.068-2.852-2.934 0-5.311.9507-7.13 2.852-1.777 1.86-2.728 4.526-2.852 7.998l-.062 2.294.062 2.294c.124 3.472 1.075 6.1587 2.852 8.06 1.819 1.86 4.196 2.79 7.13 2.79zM328.395 69c-3.058 0-5.228-.9093-6.51-2.728-1.281-1.86-1.922-4.402-1.922-7.626v-18.29h-4.836c-.413 0-.744-.124-.992-.372s-.372-.5787-.372-.992v-.868c0-.4133.124-.744.372-.992s.579-.372.992-.372h4.836V26.344c0-.4133.124-.744.372-.992s.579-.372.992-.372h1.054c.414 0 .744.124.992.372s.372.5787.372.992V36.76h7.688c.414 0 .744.124.992.372s.372.5787.372.992v.868c0 .4133-.124.744-.372.992s-.578.372-.992.372h-7.688v18.042c0 2.3147.372 4.0713 1.116 5.27.786 1.1573 2.067 1.736 3.844 1.736h3.348c.414 0 .744.124.992.372s.372.5787.372.992v.868c0 .4133-.124.744-.372.992s-.578.372-.992.372h-3.658z" fill="url(#paint1_linear)"/>
  <defs>
    <linearGradient id="paint0_linear" x1="50" y1="100" x2="50" y2="0" gradientUnits="userSpaceOnUse">
      <stop stop-color="#FF4B2B"/>
      <stop offset="1" stop-color="#FF416C"/>
    </linearGradient>
    <linearGradient id="paint1_linear" x1="235" y1="84" x2="235" y2="11" gradientUnits="userSpaceOnUse">
      <stop stop-color="#FF4B2B"/>
      <stop offset="1" stop-color="#FF416C"/>
    </linearGradient>
  </defs>
</svg>
